<svg width="126" height="28" viewBox="0 0 126 28" fill="none" xmlns="http://www.w3.org/2000/svg">
<path d="M71.032 19.784V23H59.92V6.368H63.664V19.784H71.032ZM76.1187 14.672C76.1187 15.488 76.2147 16.224 76.4067 16.88C76.6147 17.536 76.9027 18.104 77.2707 18.584C77.6547 19.048 78.1187 19.408 78.6627 19.664C79.2067 19.92 79.8307 20.048 80.5347 20.048C81.2227 20.048 81.8387 19.92 82.3827 19.664C82.9427 19.408 83.4067 19.048 83.7747 18.584C84.1587 18.104 84.4467 17.536 84.6387 16.88C84.8467 16.224 84.9507 15.488 84.9507 14.672C84.9507 13.856 84.8467 13.12 84.6387 12.464C84.4467 11.792 84.1587 11.224 83.7747 10.76C83.4067 10.28 82.9427 9.912 82.3827 9.656C81.8387 9.4 81.2227 9.272 80.5347 9.272C79.8307 9.272 79.2067 9.408 78.6627 9.68C78.1187 9.936 77.6547 10.304 77.2707 10.784C76.9027 11.248 76.6147 11.816 76.4067 12.488C76.2147 13.144 76.1187 13.872 76.1187 14.672ZM88.8147 14.672C88.8147 16.096 88.5987 17.352 88.1667 18.44C87.7507 19.512 87.1747 20.416 86.4387 21.152C85.7027 21.872 84.8227 22.416 83.7987 22.784C82.7907 23.152 81.7027 23.336 80.5347 23.336C79.3987 23.336 78.3267 23.152 77.3187 22.784C76.3107 22.416 75.4307 21.872 74.6787 21.152C73.9267 20.416 73.3347 19.512 72.9027 18.44C72.4707 17.352 72.2547 16.096 72.2547 14.672C72.2547 13.248 72.4787 12 72.9267 10.928C73.3747 9.84 73.9747 8.928 74.7267 8.192C75.4947 7.456 76.3747 6.904 77.3667 6.536C78.3747 6.168 79.4307 5.984 80.5347 5.984C81.6707 5.984 82.7427 6.168 83.7507 6.536C84.7587 6.904 85.6387 7.456 86.3907 8.192C87.1427 8.928 87.7347 9.84 88.1667 10.928C88.5987 12 88.8147 13.248 88.8147 14.672ZM100.048 9.248C98.3036 9.248 97.0396 9.736 96.2556 10.712C95.4876 11.672 95.1036 12.992 95.1036 14.672C95.1036 15.488 95.1996 16.232 95.3916 16.904C95.5836 17.56 95.8716 18.128 96.2556 18.608C96.6396 19.088 97.1196 19.464 97.6956 19.736C98.2716 19.992 98.9436 20.12 99.7116 20.12C100.128 20.12 100.48 20.112 100.768 20.096C101.072 20.08 101.336 20.048 101.56 20V14.216H105.304V22.448C104.856 22.624 104.136 22.808 103.144 23C102.152 23.208 100.928 23.312 99.4716 23.312C98.2236 23.312 97.0876 23.12 96.0636 22.736C95.0556 22.352 94.1916 21.792 93.4716 21.056C92.7516 20.32 92.1916 19.416 91.7916 18.344C91.4076 17.272 91.2156 16.048 91.2156 14.672C91.2156 13.28 91.4316 12.048 91.8636 10.976C92.2956 9.904 92.8876 9 93.6396 8.264C94.3916 7.512 95.2716 6.944 96.2796 6.56C97.3036 6.176 98.3916 5.984 99.5436 5.984C100.328 5.984 101.032 6.04 101.656 6.152C102.296 6.248 102.84 6.368 103.288 6.512C103.752 6.64 104.128 6.776 104.416 6.92C104.72 7.064 104.936 7.176 105.064 7.256L103.984 10.256C103.472 9.984 102.88 9.752 102.208 9.56C101.552 9.352 100.832 9.248 100.048 9.248ZM111.931 14.672C111.931 15.488 112.027 16.224 112.219 16.88C112.427 17.536 112.715 18.104 113.083 18.584C113.467 19.048 113.931 19.408 114.475 19.664C115.019 19.92 115.643 20.048 116.347 20.048C117.035 20.048 117.651 19.92 118.195 19.664C118.755 19.408 119.219 19.048 119.587 18.584C119.971 18.104 120.259 17.536 120.451 16.88C120.659 16.224 120.763 15.488 120.763 14.672C120.763 13.856 120.659 13.12 120.451 12.464C120.259 11.792 119.971 11.224 119.587 10.76C119.219 10.28 118.755 9.912 118.195 9.656C117.651 9.4 117.035 9.272 116.347 9.272C115.643 9.272 115.019 9.408 114.475 9.68C113.931 9.936 113.467 10.304 113.083 10.784C112.715 11.248 112.427 11.816 112.219 12.488C112.027 13.144 111.931 13.872 111.931 14.672ZM124.627 14.672C124.627 16.096 124.411 17.352 123.979 18.44C123.563 19.512 122.987 20.416 122.251 21.152C121.515 21.872 120.635 22.416 119.611 22.784C118.603 23.152 117.515 23.336 116.347 23.336C115.211 23.336 114.139 23.152 113.131 22.784C112.123 22.416 111.243 21.872 110.491 21.152C109.739 20.416 109.147 19.512 108.715 18.44C108.283 17.352 108.067 16.096 108.067 14.672C108.067 13.248 108.291 12 108.739 10.928C109.187 9.84 109.787 8.928 110.539 8.192C111.307 7.456 112.187 6.904 113.179 6.536C114.187 6.168 115.243 5.984 116.347 5.984C117.483 5.984 118.555 6.168 119.563 6.536C120.571 6.904 121.451 7.456 122.203 8.192C122.955 8.928 123.547 9.84 123.979 10.928C124.411 12 124.627 13.248 124.627 14.672Z" fill="black"/>
<rect width="46" height="28" fill="black"/>
</svg>
