<svg width="30" height="20" viewBox="0 0 30 20" fill="none" xmlns="http://www.w3.org/2000/svg">
<path d="M1.66667 20C1.19445 20 0.798894 19.84 0.480006 19.52C0.161117 19.2 0.00111686 18.8044 5.74712e-06 18.3333C-0.00110536 17.8622 0.158895 17.4666 0.480006 17.1466C0.801117 16.8266 1.19667 16.6666 1.66667 16.6666H28.3333C28.8055 16.6666 29.2017 16.8266 29.5217 17.1466C29.8417 17.4666 30.0011 17.8622 30 18.3333C29.9989 18.8044 29.8389 19.2005 29.52 19.5216C29.2011 19.8428 28.8055 20.0022 28.3333 20H1.66667ZM1.66667 11.6667C1.19445 11.6667 0.798894 11.5067 0.480006 11.1867C0.161117 10.8667 0.00111686 10.4711 5.74712e-06 9.99999C-0.00110536 9.52888 0.158895 9.13332 0.480006 8.81332C0.801117 8.49332 1.19667 8.33332 1.66667 8.33332H28.3333C28.8055 8.33332 29.2017 8.49332 29.5217 8.81332C29.8417 9.13332 30.0011 9.52888 30 9.99999C29.9989 10.4711 29.8389 10.8672 29.52 11.1883C29.2011 11.5094 28.8055 11.6689 28.3333 11.6667H1.66667ZM1.66667 3.33333C1.19445 3.33333 0.798894 3.17333 0.480006 2.85333C0.161117 2.53333 0.00111686 2.13778 5.74712e-06 1.66666C-0.00110536 1.19555 0.158895 0.799999 0.480006 0.48C0.801117 0.16 1.19667 0 1.66667 0H28.3333C28.8055 0 29.2017 0.16 29.5217 0.48C29.8417 0.799999 30.0011 1.19555 30 1.66666C29.9989 2.13778 29.8389 2.53389 29.52 2.855C29.2011 3.17611 28.8055 3.33555 28.3333 3.33333H1.66667Z" fill="black"/>
</svg>
