<svg width="194" height="33" viewBox="0 0 194 33" fill="none" xmlns="http://www.w3.org/2000/svg">
<path d="M18.208 7.528V21.512H20.768V31.272H16.48V25H4.736V31.272H0.448V21.512H1.92C2.688 20.3387 3.33867 19.0053 3.872 17.512C4.40533 15.9973 4.832 14.3867 5.152 12.68C5.472 10.9733 5.70667 9.256 5.856 7.528H18.208ZM9.856 11.112C9.68533 12.392 9.472 13.64 9.216 14.856C8.96 16.0507 8.64 17.2027 8.256 18.312C7.89333 19.4213 7.44533 20.488 6.912 21.512H13.44V11.112H9.856ZM28.354 14.44C28.354 14.8027 28.3327 15.2507 28.29 15.784C28.2687 16.3173 28.2367 16.8613 28.194 17.416C28.1727 17.9707 28.1407 18.4613 28.098 18.888C28.0553 19.3147 28.0233 19.6133 28.002 19.784L36.066 7.528H41.794V25H37.186V18.024C37.186 17.448 37.2073 16.8187 37.25 16.136C37.2927 15.432 37.3353 14.7813 37.378 14.184C37.442 13.5653 37.4847 13.096 37.506 12.776L29.474 25H23.746V7.528H28.354V14.44ZM62.2653 12.104C62.2653 13.0427 61.9666 13.8427 61.3693 14.504C60.7933 15.1653 59.9293 15.592 58.7773 15.784V15.912C59.9933 16.0613 60.9639 16.4773 61.6893 17.16C62.4359 17.8427 62.8093 18.7173 62.8093 19.784C62.8093 20.5307 62.6599 21.224 62.3612 21.864C62.0839 22.504 61.6359 23.0587 61.0173 23.528C60.3986 23.9973 59.5986 24.36 58.6173 24.616C57.6573 24.872 56.4839 25 55.0973 25H46.7773V7.528H55.0973C56.4626 7.528 57.6786 7.67733 58.7453 7.976C59.8333 8.25333 60.6866 8.72267 61.3053 9.384C61.9453 10.0453 62.2653 10.952 62.2653 12.104ZM57.8813 19.528C57.8813 18.8453 57.6146 18.3547 57.0813 18.056C56.5479 17.736 55.7479 17.576 54.6813 17.576H51.5453V21.704H54.7773C55.6733 21.704 56.4093 21.544 56.9853 21.224C57.5826 20.8827 57.8813 20.3173 57.8813 19.528ZM57.4333 12.488C57.4333 11.9333 57.2199 11.528 56.7933 11.272C56.3666 11.016 55.7373 10.888 54.9053 10.888H51.5453V14.344H54.3613C55.3639 14.344 56.1213 14.2053 56.6333 13.928C57.1666 13.6293 57.4333 13.1493 57.4333 12.488ZM71.6703 7.528V14.248H78.3263V7.528H83.0943V25H78.3263V17.8H71.6703V25H66.9023V7.528H71.6703ZM95.2898 7.208C96.9111 7.208 98.2978 7.51733 99.4498 8.136C100.623 8.75467 101.53 9.65067 102.17 10.824C102.81 11.9973 103.13 13.4373 103.13 15.144V17.448H91.8658C91.9084 18.792 92.3031 19.848 93.0498 20.616C93.8178 21.384 94.8738 21.768 96.2178 21.768C97.3484 21.768 98.3724 21.6613 99.2898 21.448C100.207 21.2133 101.156 20.8613 102.138 20.392V24.072C101.284 24.4987 100.378 24.808 99.4178 25C98.4791 25.2133 97.3378 25.32 95.9938 25.32C94.2444 25.32 92.6978 25 91.3538 24.36C90.0098 23.6987 88.9538 22.7067 88.1858 21.384C87.4178 20.0613 87.0338 18.3973 87.0338 16.392C87.0338 14.344 87.3751 12.648 88.0578 11.304C88.7618 9.93867 89.7324 8.91467 90.9698 8.232C92.2071 7.54933 93.6471 7.208 95.2898 7.208ZM95.3218 10.6C94.4044 10.6 93.6364 10.8987 93.0178 11.496C92.4204 12.0933 92.0684 13.0213 91.9618 14.28H98.6498C98.6498 13.576 98.5218 12.9467 98.2658 12.392C98.0311 11.8373 97.6684 11.4 97.1778 11.08C96.6871 10.76 96.0684 10.6 95.3218 10.6ZM125.015 7.528H130.263L123.351 15.912L130.871 25H125.463L118.327 16.136V25H113.559V7.528H118.327V16.008L125.015 7.528ZM140.539 7.176C142.886 7.176 144.678 7.688 145.915 8.712C147.174 9.71467 147.803 11.2613 147.803 13.352V25H144.475L143.547 22.632H143.419C142.928 23.2507 142.416 23.7627 141.883 24.168C141.371 24.5733 140.774 24.8613 140.091 25.032C139.43 25.224 138.608 25.32 137.627 25.32C136.603 25.32 135.675 25.128 134.843 24.744C134.032 24.3387 133.392 23.7307 132.923 22.92C132.454 22.088 132.219 21.0427 132.219 19.784C132.219 17.928 132.87 16.5627 134.171 15.688C135.472 14.792 137.424 14.3013 140.027 14.216L143.067 14.12V13.352C143.067 12.4347 142.822 11.7627 142.331 11.336C141.862 10.9093 141.2 10.696 140.347 10.696C139.494 10.696 138.662 10.824 137.851 11.08C137.04 11.3147 136.23 11.6133 135.419 11.976L133.851 8.744C134.79 8.25333 135.824 7.86933 136.955 7.592C138.107 7.31467 139.302 7.176 140.539 7.176ZM141.211 16.968C139.675 17.0107 138.608 17.288 138.011 17.8C137.414 18.312 137.115 18.984 137.115 19.816C137.115 20.5413 137.328 21.064 137.755 21.384C138.182 21.6827 138.736 21.832 139.419 21.832C140.443 21.832 141.307 21.5333 142.011 20.936C142.715 20.3173 143.067 19.4533 143.067 18.344V16.904L141.211 16.968ZM165.452 7.432C167.478 7.60267 169.185 8.08267 170.572 8.872C171.958 9.64 173.004 10.6533 173.708 11.912C174.433 13.1707 174.796 14.6213 174.796 16.264C174.796 17.8853 174.444 19.336 173.74 20.616C173.057 21.896 172.022 22.9307 170.636 23.72C169.27 24.488 167.542 24.9573 165.452 25.128V32.68H161.036V25.128C159.03 24.936 157.324 24.456 155.916 23.688C154.529 22.8987 153.462 21.8747 152.716 20.616C151.99 19.336 151.628 17.8853 151.628 16.264C151.628 14.6 151.958 13.128 152.62 11.848C153.302 10.568 154.337 9.544 155.724 8.776C157.132 8.008 158.902 7.56 161.036 7.432V0.679998H165.452V7.432ZM161.036 11.016C160.118 11.144 159.318 11.4533 158.635 11.944C157.953 12.4133 157.43 13.0213 157.068 13.768C156.705 14.4933 156.524 15.3253 156.524 16.264C156.524 17.2027 156.694 18.0453 157.036 18.792C157.398 19.5387 157.91 20.1467 158.572 20.616C159.254 21.0853 160.076 21.384 161.036 21.512V11.016ZM165.452 21.512C166.412 21.384 167.222 21.0853 167.884 20.616C168.545 20.1467 169.046 19.5387 169.388 18.792C169.729 18.0453 169.9 17.2027 169.9 16.264C169.9 15.3253 169.718 14.4933 169.356 13.768C168.993 13.0213 168.481 12.4133 167.819 11.944C167.158 11.4747 166.369 11.1867 165.452 11.08V21.512ZM185.946 7.208C187.567 7.208 188.954 7.51733 190.106 8.136C191.279 8.75467 192.186 9.65067 192.826 10.824C193.466 11.9973 193.786 13.4373 193.786 15.144V17.448H182.522C182.565 18.792 182.959 19.848 183.706 20.616C184.474 21.384 185.53 21.768 186.874 21.768C188.005 21.768 189.029 21.6613 189.946 21.448C190.863 21.2133 191.813 20.8613 192.794 20.392V24.072C191.941 24.4987 191.034 24.808 190.074 25C189.135 25.2133 187.994 25.32 186.65 25.32C184.901 25.32 183.354 25 182.01 24.36C180.666 23.6987 179.61 22.7067 178.842 21.384C178.074 20.0613 177.69 18.3973 177.69 16.392C177.69 14.344 178.031 12.648 178.714 11.304C179.418 9.93867 180.389 8.91467 181.626 8.232C182.863 7.54933 184.303 7.208 185.946 7.208ZM185.978 10.6C185.061 10.6 184.293 10.8987 183.674 11.496C183.077 12.0933 182.725 13.0213 182.618 14.28H189.306C189.306 13.576 189.178 12.9467 188.922 12.392C188.687 11.8373 188.325 11.4 187.834 11.08C187.343 10.76 186.725 10.6 185.978 10.6Z" fill="#202020"/>
</svg>
